<svg xmlns="http://www.w3.org/2000/svg" xmlns:xlink="http://www.w3.org/1999/xlink" width="300" zoomAndPan="magnify" viewBox="0 0 224.87999 74.999997" height="100" preserveAspectRatio="xMidYMid meet" version="1.0"><defs><g/><clipPath id="a7d6391f2b"><path d="M 36 57.191406 L 39.578125 57.191406 L 39.578125 65.199219 L 36 65.199219 Z M 36 57.191406 " clip-rule="nonzero"/></clipPath><clipPath id="b03fae7fb7"><path d="M 28 56 L 34 56 L 34 65.199219 L 28 65.199219 Z M 28 56 " clip-rule="nonzero"/></clipPath><clipPath id="ac16c5c51f"><path d="M 36 58.789062 L 41 58.789062 L 41 65.199219 L 36 65.199219 Z M 36 58.789062 " clip-rule="nonzero"/></clipPath></defs><path fill="#ffffff" d="M 46.945312 17.859375 C 44.886719 21.675781 42.476562 25.492188 37.535156 29.296875 C 34.308594 31.785156 30.644531 33.195312 28.214844 39.582031 C 26.742188 43.460938 27.679688 47.277344 28.214844 51.011719 C 24.449219 41.152344 26.886719 35.582031 31.082031 32.046875 C 26.203125 35.46875 23.394531 40.816406 26.78125 50.394531 C 21.980469 41.261719 25.679688 32.535156 33.683594 28.765625 C 24.84375 31.742188 22.707031 39.09375 23.460938 47.46875 C 21.664062 39.332031 22.167969 35.125 26.78125 29.296875 C 22.175781 33.558594 20.1875 39.457031 22.03125 47.730469 C 20.863281 45.671875 19.621094 43.339844 19.613281 39.136719 C 19.597656 30.558594 22.917969 25.648438 30.816406 23.445312 C 33.457031 22.707031 36.792969 22.8125 38.792969 22.207031 C 41.441406 21.402344 43.039062 20.023438 44.882812 18.839844 C 43.488281 20.589844 41.820312 22.515625 38.878906 23.800781 C 36.699219 24.75 34.339844 25.21875 32.070312 25.929688 C 29.570312 26.710938 28.621094 27.742188 27.585938 28.765625 C 29.140625 27.554688 30.753906 26.78125 32.515625 26.460938 C 34.855469 26.039062 37.128906 25.242188 39.328125 24.332031 C 42.765625 22.90625 45.03125 20.433594 46.945312 17.859375 Z M 47.300781 14.050781 C 46.707031 13.425781 46.074219 13.15625 45.238281 15.378906 C 44.558594 16.765625 43.9375 18.160156 42.285156 19.546875 C 40.382812 20.746094 39.210938 21.660156 33.050781 22.207031 C 17.679688 23.570312 13.699219 42.214844 23.554688 51.722656 C 24.835938 52.960938 26.605469 53.585938 28.035156 54.648438 C 29.003906 55.367188 29.835938 55.585938 30.722656 55.710938 C 31.734375 55.851562 32.339844 56.308594 32.78125 56.863281 C 33.882812 58.21875 35.324219 57.90625 36.816406 57.925781 C 37.765625 57.9375 39.074219 57.875 39.589844 58.6875 C 40.191406 59.621094 40.871094 59.792969 41.746094 59.433594 C 43.152344 58.855469 44.21875 59.027344 45.152344 58.8125 C 65.765625 54.140625 66.320312 37.085938 53.664062 27.167969 C 48.40625 23.050781 50.355469 17.855469 51.066406 12.988281 C 51.402344 10.675781 49.15625 11.09375 47.300781 14.050781 Z M 48.78125 15.074219 C 49.234375 13.554688 50.136719 13.636719 49.929688 14.980469 C 49.535156 17.511719 48.449219 19.871094 47.148438 22.097656 C 47.832031 19.753906 48.09375 17.355469 48.78125 15.074219 Z M 26.773438 52.804688 C 27.839844 53.714844 28.777344 54.972656 30.863281 55.246094 C 31.863281 55.382812 32.039062 54.566406 31.207031 54.328125 C 29.773438 53.921875 28.253906 53.441406 26.773438 52.804688 Z M 33.292969 56.203125 C 32.808594 55.601562 33.351562 55.203125 33.988281 55.671875 C 34.710938 56.191406 35.5625 56.816406 36.730469 57.3125 C 35.542969 57.34375 34.175781 57.289062 33.292969 56.203125 Z M 40.476562 58 C 41.617188 57.40625 42.785156 57.714844 43.796875 58.039062 C 42.847656 58.027344 41.953125 58.207031 40.941406 58.578125 C 40.105469 58.882812 39.777344 58.371094 40.476562 58 Z M 29.828125 51.191406 C 27.792969 42.089844 29.851562 35.152344 38.074219 30.273438 C 40.015625 28.929688 41.628906 27.425781 43.089844 25.84375 C 42.214844 28.035156 40.683594 29.972656 38.609375 31.691406 C 41.789062 29.566406 43.851562 26.699219 45.601562 23.625 C 44.332031 27.035156 43.433594 30.523438 43.359375 34.171875 C 44.015625 30.953125 44.914062 27.847656 46.050781 24.863281 C 45.539062 32.246094 49.234375 37.300781 46.136719 44.808594 C 49.5 38.566406 47.875 34.96875 47.210938 29.210938 C 46.90625 26.5625 47.351562 23.933594 48.199219 22.382812 C 48.34375 25.695312 48.199219 29.117188 51.152344 32.308594 C 53.765625 35.132812 54.902344 37.667969 56.265625 41.171875 C 56.46875 37.78125 54.039062 33.964844 51.960938 31.421875 C 50.222656 29.292969 49.660156 27.199219 49.453125 24.957031 C 50.265625 26.980469 50.871094 28.859375 53.578125 31.246094 C 58.011719 35.164062 59.179688 37.84375 58.59375 43.660156 C 60.460938 38.050781 58.605469 34.582031 54.289062 30.804688 C 52.195312 28.96875 51.464844 27.085938 50.527344 25.132812 C 52.289062 27.167969 54.644531 29.496094 56.53125 31.421875 C 59.613281 34.5625 59.875 36.714844 60.386719 39.3125 C 62.589844 50.597656 54.402344 55.234375 44.96875 57.664062 C 50.355469 55.773438 54.226562 53.136719 56.265625 49.59375 C 53.214844 53.433594 48.617188 55.742188 42.464844 56.507812 C 50.734375 53.683594 54.691406 50.425781 56.265625 42.058594 C 54.394531 51.890625 47.28125 54.246094 39.417969 55.535156 C 44.75 54.320312 49.980469 52.367188 54.113281 42.589844 C 51.347656 47.625 47.617188 51.597656 42.464844 54.027344 C 45.074219 51.84375 46.867188 49.007812 48.285156 45.871094 C 46.058594 50.082031 42.753906 53.335938 37.890625 55.179688 C 41.894531 52.578125 44.457031 49.300781 45.832031 45.515625 C 43.578125 49.769531 40.539062 53.390625 35.804688 55.289062 C 35.070312 55.589844 34.457031 54.847656 35.023438 54.472656 C 40.371094 50.941406 42.421875 47.730469 44.257812 44.363281 C 41.839844 47.382812 39.992188 50.566406 35.476562 53.230469 C 34.1875 53.984375 33.839844 53.746094 33.949219 52.699219 C 34.507812 47.488281 35.644531 42.648438 37.175781 37.894531 C 35.292969 41.941406 33.738281 46.246094 32.875 52.167969 C 32.71875 53.210938 32.144531 53.128906 31.890625 51.984375 C 30.328125 45.089844 32.246094 39.550781 35.292969 34.527344 C 31.441406 38.824219 29.859375 44.527344 29.828125 51.191406 Z M 29.828125 51.191406 " fill-opacity="1" fill-rule="evenodd"/><path fill="#ffffff" d="M 31.871094 55.785156 C 29.773438 57.152344 28.679688 56.363281 26.117188 55.554688 C 24.367188 55.003906 22.9375 55.785156 23.0625 58.15625 C 23.117188 59.1875 22.59375 59.9375 22.019531 60.5625 C 22.371094 59.800781 22.59375 58.96875 22.527344 58 C 22.289062 54.851562 24.925781 54.558594 26.617188 55.132812 C 27.660156 55.484375 29.578125 56.445312 30.476562 55.402344 C 30.941406 55.527344 31.402344 55.660156 31.871094 55.785156 Z M 31.871094 55.785156 " fill-opacity="1" fill-rule="evenodd"/><path fill="#ffffff" d="M 35.164062 57.515625 C 33.636719 59.199219 32.425781 59.0625 29.871094 59.636719 C 28.128906 60.027344 27.046875 61.085938 27.824219 62.460938 C 28.160156 63.054688 27.890625 63.722656 27.546875 64.335938 C 27.648438 63.734375 27.621094 63.140625 27.285156 62.59375 C 26.199219 60.792969 28.371094 59.070312 30.050781 58.871094 C 31.253906 58.730469 33.644531 58.453125 33.90625 57.328125 C 34.363281 57.207031 34.707031 57.632812 35.164062 57.515625 Z M 35.164062 57.515625 " fill-opacity="1" fill-rule="evenodd"/><path fill="#ffffff" d="M 28.429688 54.558594 C 26.023438 55.429688 25.75 56.527344 25.691406 59.03125 C 25.660156 60.355469 24.804688 61.101562 24.070312 61.785156 C 24.625 60.894531 25.167969 60.074219 25.1875 59.074219 C 25.230469 56.660156 25.332031 55.210938 27.542969 54.027344 C 27.839844 54.203125 28.136719 54.382812 28.429688 54.558594 Z M 28.429688 54.558594 " fill-opacity="1" fill-rule="evenodd"/><path fill="#ffffff" d="M 33.144531 56.902344 C 30.964844 56.121094 30.132812 56.722656 28.621094 58.425781 C 27.828125 59.320312 26.792969 59.34375 25.886719 59.402344 C 26.792969 59.101562 27.648438 58.851562 28.253906 58.164062 C 29.695312 56.515625 30.613281 55.570312 32.84375 56.027344 C 32.945312 56.316406 33.042969 56.609375 33.144531 56.902344 Z M 33.144531 56.902344 " fill-opacity="1" fill-rule="evenodd"/><path fill="#ffffff" d="M 38.472656 57.703125 C 35.738281 57.671875 34.613281 58.484375 32.519531 60.519531 C 31.421875 61.59375 30.089844 61.941406 28.910156 62.28125 C 30.101562 61.71875 31.234375 61.21875 32.0625 60.398438 C 34.070312 58.433594 35.332031 57.277344 38.160156 56.988281 C 38.261719 57.226562 38.367188 57.464844 38.472656 57.703125 Z M 38.472656 57.703125 " fill-opacity="1" fill-rule="evenodd"/><g clip-path="url(#a7d6391f2b)"><path fill="#ffffff" d="M 36.582031 57.621094 C 35.351562 60.679688 37.011719 63.117188 39.085938 65.460938 C 36.960938 62.40625 36.253906 59.792969 37.117188 57.65625 C 36.9375 57.644531 36.753906 57.632812 36.582031 57.621094 Z M 36.582031 57.621094 " fill-opacity="1" fill-rule="evenodd"/></g><g clip-path="url(#b03fae7fb7)"><path fill="#ffffff" d="M 32.996094 56.089844 C 34.675781 61.617188 31.082031 65.867188 28.324219 65.839844 C 32.257812 64.640625 33.914062 59.5 32.453125 56.132812 C 32.632812 56.121094 32.8125 56.101562 32.996094 56.089844 Z M 32.996094 56.089844 " fill-opacity="1" fill-rule="evenodd"/></g><g clip-path="url(#ac16c5c51f)"><path fill="#ffffff" d="M 40.183594 58.84375 C 36.304688 59.53125 35.929688 62.253906 36.636719 65.265625 C 36.480469 61.46875 37.941406 59.53125 40.570312 59.3125 C 40.441406 59.15625 40.308594 59 40.183594 58.84375 Z M 40.183594 58.84375 " fill-opacity="1" fill-rule="evenodd"/></g><g fill="#ffffff" fill-opacity="1"><g transform="translate(80.778252, 32.765932)"><g><path d="M 15.9375 0.4375 C 13.207031 0.4375 10.769531 -0.171875 8.625 -1.390625 C 6.488281 -2.617188 4.800781 -4.316406 3.5625 -6.484375 C 2.332031 -8.648438 1.71875 -11.128906 1.71875 -13.921875 C 1.71875 -16.210938 2.117188 -18.367188 2.921875 -20.390625 C 3.734375 -22.421875 4.851562 -24.195312 6.28125 -25.71875 C 7.71875 -27.238281 9.410156 -28.425781 11.359375 -29.28125 C 13.316406 -30.144531 15.445312 -30.578125 17.75 -30.578125 C 20.644531 -30.578125 23.15625 -29.929688 25.28125 -28.640625 C 27.40625 -27.347656 29.050781 -25.601562 30.21875 -23.40625 C 31.382812 -21.21875 31.96875 -18.726562 31.96875 -15.9375 C 31.96875 -13.613281 31.570312 -11.457031 30.78125 -9.46875 C 29.988281 -7.488281 28.875 -5.753906 27.4375 -4.265625 C 26 -2.773438 24.300781 -1.617188 22.34375 -0.796875 C 20.394531 0.0234375 18.257812 0.4375 15.9375 0.4375 Z M 18.171875 -2.96875 C 20.015625 -2.96875 21.507812 -3.40625 22.65625 -4.28125 C 23.800781 -5.15625 24.644531 -6.332031 25.1875 -7.8125 C 25.738281 -9.289062 26.015625 -10.910156 26.015625 -12.671875 C 26.015625 -14.472656 25.773438 -16.253906 25.296875 -18.015625 C 24.828125 -19.785156 24.144531 -21.390625 23.25 -22.828125 C 22.363281 -24.265625 21.289062 -25.40625 20.03125 -26.25 C 18.769531 -27.101562 17.332031 -27.53125 15.71875 -27.53125 C 13.9375 -27.53125 12.441406 -27.066406 11.234375 -26.140625 C 10.035156 -25.222656 9.140625 -24.03125 8.546875 -22.5625 C 7.960938 -21.101562 7.671875 -19.523438 7.671875 -17.828125 C 7.671875 -15.960938 7.910156 -14.144531 8.390625 -12.375 C 8.878906 -10.613281 9.578125 -9.019531 10.484375 -7.59375 C 11.390625 -6.175781 12.488281 -5.050781 13.78125 -4.21875 C 15.070312 -3.382812 16.535156 -2.96875 18.171875 -2.96875 Z M 18.171875 -2.96875 "/></g></g></g><g fill="#ffffff" fill-opacity="1"><g transform="translate(114.547557, 32.765932)"><g><path d="M 23.734375 -12.28125 L 23.78125 -5.984375 C 23.78125 -4.984375 23.882812 -4.242188 24.09375 -3.765625 C 24.3125 -3.296875 24.554688 -2.953125 24.828125 -2.734375 C 25.109375 -2.515625 25.347656 -2.304688 25.546875 -2.109375 C 25.742188 -1.910156 25.84375 -1.566406 25.84375 -1.078125 C 25.84375 -0.648438 25.675781 -0.363281 25.34375 -0.21875 C 25.019531 -0.0703125 24.570312 0 24 0 L 17.796875 0 C 17.191406 0 16.707031 -0.078125 16.34375 -0.234375 C 15.988281 -0.390625 15.8125 -0.6875 15.8125 -1.125 C 15.8125 -1.582031 15.914062 -1.910156 16.125 -2.109375 C 16.34375 -2.304688 16.59375 -2.515625 16.875 -2.734375 C 17.164062 -2.953125 17.421875 -3.296875 17.640625 -3.765625 C 17.859375 -4.242188 17.96875 -4.984375 17.96875 -5.984375 L 17.96875 -11.625 C 17.96875 -13.269531 17.664062 -14.664062 17.0625 -15.8125 C 16.457031 -16.957031 15.394531 -17.515625 13.875 -17.484375 C 12.78125 -17.484375 11.800781 -17.0625 10.9375 -16.21875 C 10.082031 -15.375 9.582031 -14.117188 9.4375 -12.453125 L 9.4375 -5.984375 C 9.4375 -4.984375 9.539062 -4.242188 9.75 -3.765625 C 9.96875 -3.296875 10.210938 -2.953125 10.484375 -2.734375 C 10.765625 -2.515625 11.003906 -2.304688 11.203125 -2.109375 C 11.398438 -1.910156 11.5 -1.566406 11.5 -1.078125 C 11.5 -0.648438 11.332031 -0.363281 11 -0.21875 C 10.675781 -0.0703125 10.226562 0 9.65625 0 L 3.453125 0 C 2.847656 0 2.367188 -0.078125 2.015625 -0.234375 C 1.671875 -0.390625 1.5 -0.6875 1.5 -1.125 C 1.5 -1.582031 1.609375 -1.910156 1.828125 -2.109375 C 2.046875 -2.304688 2.289062 -2.515625 2.5625 -2.734375 C 2.832031 -2.953125 3.078125 -3.296875 3.296875 -3.765625 C 3.515625 -4.242188 3.625 -4.984375 3.625 -5.984375 L 3.625 -14.171875 C 3.625 -14.773438 3.503906 -15.285156 3.265625 -15.703125 C 3.035156 -16.117188 2.707031 -16.484375 2.28125 -16.796875 C 2.082031 -16.941406 1.898438 -17.109375 1.734375 -17.296875 C 1.578125 -17.484375 1.5 -17.71875 1.5 -18 C 1.5 -18.351562 1.59375 -18.628906 1.78125 -18.828125 C 1.96875 -19.023438 2.320312 -19.238281 2.84375 -19.46875 C 3.382812 -19.726562 4 -19.976562 4.6875 -20.21875 C 5.382812 -20.46875 6.023438 -20.671875 6.609375 -20.828125 C 7.203125 -20.984375 7.613281 -21.0625 7.84375 -21.0625 C 8.5 -21.0625 8.828125 -20.628906 8.828125 -19.765625 L 8.828125 -17.359375 C 9.722656 -18.648438 10.804688 -19.597656 12.078125 -20.203125 C 13.359375 -20.804688 14.660156 -21.109375 15.984375 -21.109375 C 18.597656 -21.109375 20.539062 -20.320312 21.8125 -18.75 C 23.09375 -17.1875 23.734375 -15.03125 23.734375 -12.28125 Z M 23.734375 -12.28125 "/></g></g></g><g fill="#ffffff" fill-opacity="1"><g transform="translate(141.468241, 32.765932)"><g><path d="M 5.125 -23.484375 C 4.320312 -23.503906 3.679688 -23.765625 3.203125 -24.265625 C 2.734375 -24.773438 2.515625 -25.390625 2.546875 -26.109375 C 2.566406 -26.765625 2.800781 -27.414062 3.25 -28.0625 C 3.695312 -28.707031 4.265625 -29.226562 4.953125 -29.625 C 5.640625 -30.03125 6.34375 -30.222656 7.0625 -30.203125 C 7.84375 -30.171875 8.488281 -29.894531 9 -29.375 C 9.519531 -28.863281 9.78125 -28.234375 9.78125 -27.484375 C 9.75 -26.796875 9.503906 -26.140625 9.046875 -25.515625 C 8.585938 -24.898438 8.003906 -24.40625 7.296875 -24.03125 C 6.597656 -23.664062 5.875 -23.484375 5.125 -23.484375 Z M 3.65625 -5.984375 L 3.625 -13.921875 C 3.625 -14.660156 3.519531 -15.222656 3.3125 -15.609375 C 3.113281 -16.003906 2.878906 -16.304688 2.609375 -16.515625 C 2.335938 -16.734375 2.09375 -16.9375 1.875 -17.125 C 1.65625 -17.3125 1.546875 -17.5625 1.546875 -17.875 C 1.546875 -18.1875 1.644531 -18.429688 1.84375 -18.609375 C 2.050781 -18.785156 2.410156 -18.988281 2.921875 -19.21875 C 3.523438 -19.5 4.210938 -19.78125 4.984375 -20.0625 C 5.765625 -20.351562 6.484375 -20.597656 7.140625 -20.796875 C 7.804688 -21.003906 8.253906 -21.109375 8.484375 -21.109375 C 9.171875 -21.140625 9.515625 -20.707031 9.515625 -19.8125 L 9.484375 -13.921875 L 9.484375 -5.984375 C 9.484375 -4.984375 9.585938 -4.242188 9.796875 -3.765625 C 10.015625 -3.296875 10.257812 -2.953125 10.53125 -2.734375 C 10.800781 -2.515625 11.035156 -2.304688 11.234375 -2.109375 C 11.441406 -1.910156 11.546875 -1.566406 11.546875 -1.078125 C 11.546875 -0.648438 11.378906 -0.363281 11.046875 -0.21875 C 10.710938 -0.0703125 10.25 0 9.65625 0 L 3.484375 0 C 2.878906 0 2.394531 -0.078125 2.03125 -0.234375 C 1.675781 -0.390625 1.5 -0.6875 1.5 -1.125 C 1.5 -1.582031 1.609375 -1.910156 1.828125 -2.109375 C 2.046875 -2.304688 2.296875 -2.515625 2.578125 -2.734375 C 2.867188 -2.953125 3.117188 -3.296875 3.328125 -3.765625 C 3.546875 -4.242188 3.65625 -4.984375 3.65625 -5.984375 Z M 3.65625 -5.984375 "/></g></g></g><g fill="#ffffff" fill-opacity="1"><g transform="translate(154.433239, 32.765932)"><g><path d="M 11.546875 0.4375 C 9.648438 0.4375 7.929688 0.0351562 6.390625 -0.765625 C 4.859375 -1.578125 3.644531 -2.726562 2.75 -4.21875 C 1.863281 -5.71875 1.421875 -7.484375 1.421875 -9.515625 C 1.421875 -11.671875 1.9375 -13.625 2.96875 -15.375 C 4 -17.125 5.410156 -18.515625 7.203125 -19.546875 C 9.003906 -20.585938 11.039062 -21.109375 13.3125 -21.109375 C 15.289062 -21.109375 17.035156 -20.660156 18.546875 -19.765625 C 20.054688 -18.878906 21.234375 -17.675781 22.078125 -16.15625 C 22.921875 -14.632812 23.34375 -12.910156 23.34375 -10.984375 C 23.34375 -8.828125 22.832031 -6.882812 21.8125 -5.15625 C 20.800781 -3.4375 19.410156 -2.070312 17.640625 -1.0625 C 15.867188 -0.0625 13.835938 0.4375 11.546875 0.4375 Z M 13.390625 -2.40625 C 14.859375 -2.40625 15.929688 -2.957031 16.609375 -4.0625 C 17.285156 -5.175781 17.625 -6.476562 17.625 -7.96875 C 17.625 -9.226562 17.472656 -10.460938 17.171875 -11.671875 C 16.867188 -12.878906 16.4375 -13.984375 15.875 -14.984375 C 15.3125 -15.992188 14.648438 -16.789062 13.890625 -17.375 C 13.128906 -17.96875 12.289062 -18.265625 11.375 -18.265625 C 10.34375 -18.265625 9.507812 -17.976562 8.875 -17.40625 C 8.238281 -16.832031 7.785156 -16.09375 7.515625 -15.1875 C 7.242188 -14.28125 7.109375 -13.3125 7.109375 -12.28125 C 7.109375 -10.613281 7.375 -9.023438 7.90625 -7.515625 C 8.4375 -6.003906 9.175781 -4.773438 10.125 -3.828125 C 11.070312 -2.878906 12.160156 -2.40625 13.390625 -2.40625 Z M 13.390625 -2.40625 "/></g></g></g><g fill="#ffffff" fill-opacity="1"><g transform="translate(179.243341, 32.765932)"><g><path d="M 23.734375 -12.28125 L 23.78125 -5.984375 C 23.78125 -4.984375 23.882812 -4.242188 24.09375 -3.765625 C 24.3125 -3.296875 24.554688 -2.953125 24.828125 -2.734375 C 25.109375 -2.515625 25.347656 -2.304688 25.546875 -2.109375 C 25.742188 -1.910156 25.84375 -1.566406 25.84375 -1.078125 C 25.84375 -0.648438 25.675781 -0.363281 25.34375 -0.21875 C 25.019531 -0.0703125 24.570312 0 24 0 L 17.796875 0 C 17.191406 0 16.707031 -0.078125 16.34375 -0.234375 C 15.988281 -0.390625 15.8125 -0.6875 15.8125 -1.125 C 15.8125 -1.582031 15.914062 -1.910156 16.125 -2.109375 C 16.34375 -2.304688 16.59375 -2.515625 16.875 -2.734375 C 17.164062 -2.953125 17.421875 -3.296875 17.640625 -3.765625 C 17.859375 -4.242188 17.96875 -4.984375 17.96875 -5.984375 L 17.96875 -11.625 C 17.96875 -13.269531 17.664062 -14.664062 17.0625 -15.8125 C 16.457031 -16.957031 15.394531 -17.515625 13.875 -17.484375 C 12.78125 -17.484375 11.800781 -17.0625 10.9375 -16.21875 C 10.082031 -15.375 9.582031 -14.117188 9.4375 -12.453125 L 9.4375 -5.984375 C 9.4375 -4.984375 9.539062 -4.242188 9.75 -3.765625 C 9.96875 -3.296875 10.210938 -2.953125 10.484375 -2.734375 C 10.765625 -2.515625 11.003906 -2.304688 11.203125 -2.109375 C 11.398438 -1.910156 11.5 -1.566406 11.5 -1.078125 C 11.5 -0.648438 11.332031 -0.363281 11 -0.21875 C 10.675781 -0.0703125 10.226562 0 9.65625 0 L 3.453125 0 C 2.847656 0 2.367188 -0.078125 2.015625 -0.234375 C 1.671875 -0.390625 1.5 -0.6875 1.5 -1.125 C 1.5 -1.582031 1.609375 -1.910156 1.828125 -2.109375 C 2.046875 -2.304688 2.289062 -2.515625 2.5625 -2.734375 C 2.832031 -2.953125 3.078125 -3.296875 3.296875 -3.765625 C 3.515625 -4.242188 3.625 -4.984375 3.625 -5.984375 L 3.625 -14.171875 C 3.625 -14.773438 3.503906 -15.285156 3.265625 -15.703125 C 3.035156 -16.117188 2.707031 -16.484375 2.28125 -16.796875 C 2.082031 -16.941406 1.898438 -17.109375 1.734375 -17.296875 C 1.578125 -17.484375 1.5 -17.71875 1.5 -18 C 1.5 -18.351562 1.59375 -18.628906 1.78125 -18.828125 C 1.96875 -19.023438 2.320312 -19.238281 2.84375 -19.46875 C 3.382812 -19.726562 4 -19.976562 4.6875 -20.21875 C 5.382812 -20.46875 6.023438 -20.671875 6.609375 -20.828125 C 7.203125 -20.984375 7.613281 -21.0625 7.84375 -21.0625 C 8.5 -21.0625 8.828125 -20.628906 8.828125 -19.765625 L 8.828125 -17.359375 C 9.722656 -18.648438 10.804688 -19.597656 12.078125 -20.203125 C 13.359375 -20.804688 14.660156 -21.109375 15.984375 -21.109375 C 18.597656 -21.109375 20.539062 -20.320312 21.8125 -18.75 C 23.09375 -17.1875 23.734375 -15.03125 23.734375 -12.28125 Z M 23.734375 -12.28125 "/></g></g></g><g fill="#ffffff" fill-opacity="1"><g transform="translate(83.775573, 66.847156)"><g><path d="M 17.015625 -25.375 L 17.015625 -7.1875 C 17.015625 -5.894531 17.148438 -4.945312 17.421875 -4.34375 C 17.691406 -3.75 18.015625 -3.320312 18.390625 -3.0625 C 18.765625 -2.800781 19.085938 -2.554688 19.359375 -2.328125 C 19.628906 -2.097656 19.765625 -1.722656 19.765625 -1.203125 C 19.765625 -0.742188 19.59375 -0.425781 19.25 -0.25 C 18.90625 -0.0820312 18.273438 0 17.359375 0 L 10.515625 0 C 9.648438 0 9.03125 -0.0820312 8.65625 -0.25 C 8.28125 -0.425781 8.09375 -0.742188 8.09375 -1.203125 C 8.09375 -1.722656 8.234375 -2.097656 8.515625 -2.328125 C 8.804688 -2.554688 9.140625 -2.800781 9.515625 -3.0625 C 9.890625 -3.320312 10.21875 -3.75 10.5 -4.34375 C 10.789062 -4.945312 10.9375 -5.894531 10.9375 -7.1875 L 10.9375 -25.375 C 10.9375 -26.632812 10.289062 -27.265625 9 -27.265625 C 8.050781 -27.265625 7.289062 -27.097656 6.71875 -26.765625 C 6.144531 -26.441406 5.640625 -25.945312 5.203125 -25.28125 C 4.773438 -24.625 4.304688 -23.804688 3.796875 -22.828125 C 3.273438 -21.765625 2.742188 -21.234375 2.203125 -21.234375 C 1.734375 -21.234375 1.425781 -21.40625 1.28125 -21.75 C 1.144531 -22.09375 1.09375 -22.554688 1.125 -23.140625 C 1.175781 -24.316406 1.25 -25.328125 1.34375 -26.171875 C 1.445312 -27.015625 1.585938 -27.738281 1.765625 -28.34375 C 1.941406 -29.007812 2.257812 -29.476562 2.71875 -29.75 C 3.175781 -30.019531 4.066406 -30.15625 5.390625 -30.15625 L 22.578125 -30.15625 C 23.890625 -30.15625 24.773438 -30.019531 25.234375 -29.75 C 25.703125 -29.476562 26.007812 -29.023438 26.15625 -28.390625 C 26.320312 -27.753906 26.460938 -27.015625 26.578125 -26.171875 C 26.691406 -25.328125 26.765625 -24.316406 26.796875 -23.140625 C 26.828125 -22.585938 26.773438 -22.128906 26.640625 -21.765625 C 26.515625 -21.410156 26.222656 -21.234375 25.765625 -21.234375 C 25.441406 -21.234375 25.15625 -21.363281 24.90625 -21.625 C 24.664062 -21.882812 24.40625 -22.285156 24.125 -22.828125 C 23.632812 -23.835938 23.164062 -24.671875 22.71875 -25.328125 C 22.28125 -25.992188 21.769531 -26.488281 21.1875 -26.8125 C 20.613281 -27.144531 19.851562 -27.3125 18.90625 -27.3125 C 17.644531 -27.3125 17.015625 -26.664062 17.015625 -25.375 Z M 17.015625 -25.375 "/></g></g></g><g fill="#ffffff" fill-opacity="1"><g transform="translate(111.686945, 66.847156)"><g><path d="M 14.8125 -21.109375 C 16.082031 -21.109375 17.039062 -20.753906 17.6875 -20.046875 C 18.332031 -19.347656 18.65625 -18.46875 18.65625 -17.40625 C 18.65625 -16.539062 18.457031 -15.84375 18.0625 -15.3125 C 17.675781 -14.78125 17.15625 -14.515625 16.5 -14.515625 C 15.976562 -14.515625 15.570312 -14.628906 15.28125 -14.859375 C 15 -15.085938 14.734375 -15.34375 14.484375 -15.625 C 14.242188 -15.914062 13.972656 -16.175781 13.671875 -16.40625 C 13.367188 -16.632812 12.960938 -16.75 12.453125 -16.75 C 11.671875 -16.75 10.976562 -16.316406 10.375 -15.453125 C 9.78125 -14.597656 9.484375 -13.378906 9.484375 -11.796875 L 9.484375 -5.984375 C 9.484375 -4.984375 9.585938 -4.242188 9.796875 -3.765625 C 10.015625 -3.296875 10.257812 -2.953125 10.53125 -2.734375 C 10.800781 -2.515625 11.035156 -2.304688 11.234375 -2.109375 C 11.441406 -1.910156 11.546875 -1.566406 11.546875 -1.078125 C 11.546875 -0.648438 11.378906 -0.363281 11.046875 -0.21875 C 10.710938 -0.0703125 10.25 0 9.65625 0 L 3.484375 0 C 2.878906 0 2.394531 -0.078125 2.03125 -0.234375 C 1.675781 -0.390625 1.5 -0.6875 1.5 -1.125 C 1.5 -1.582031 1.609375 -1.910156 1.828125 -2.109375 C 2.046875 -2.304688 2.296875 -2.515625 2.578125 -2.734375 C 2.867188 -2.953125 3.117188 -3.296875 3.328125 -3.765625 C 3.546875 -4.242188 3.65625 -4.984375 3.65625 -5.984375 L 3.65625 -14.171875 C 3.65625 -14.773438 3.539062 -15.285156 3.3125 -15.703125 C 3.082031 -16.117188 2.753906 -16.484375 2.328125 -16.796875 C 2.128906 -16.941406 1.941406 -17.109375 1.765625 -17.296875 C 1.585938 -17.484375 1.5 -17.71875 1.5 -18 C 1.5 -18.351562 1.597656 -18.628906 1.796875 -18.828125 C 2.003906 -19.023438 2.367188 -19.238281 2.890625 -19.46875 C 3.429688 -19.726562 4.039062 -19.976562 4.71875 -20.21875 C 5.394531 -20.46875 6.023438 -20.671875 6.609375 -20.828125 C 7.203125 -20.984375 7.613281 -21.0625 7.84375 -21.0625 C 8.53125 -21.0625 8.875 -20.628906 8.875 -19.765625 L 8.875 -17.234375 C 9.675781 -18.554688 10.609375 -19.53125 11.671875 -20.15625 C 12.734375 -20.789062 13.78125 -21.109375 14.8125 -21.109375 Z M 14.8125 -21.109375 "/></g></g></g><g fill="#ffffff" fill-opacity="1"><g transform="translate(131.672861, 66.847156)"><g><path d="M 11.546875 0.4375 C 9.648438 0.4375 7.929688 0.0351562 6.390625 -0.765625 C 4.859375 -1.578125 3.644531 -2.726562 2.75 -4.21875 C 1.863281 -5.71875 1.421875 -7.484375 1.421875 -9.515625 C 1.421875 -11.671875 1.9375 -13.625 2.96875 -15.375 C 4 -17.125 5.410156 -18.515625 7.203125 -19.546875 C 9.003906 -20.585938 11.039062 -21.109375 13.3125 -21.109375 C 15.289062 -21.109375 17.035156 -20.660156 18.546875 -19.765625 C 20.054688 -18.878906 21.234375 -17.675781 22.078125 -16.15625 C 22.921875 -14.632812 23.34375 -12.910156 23.34375 -10.984375 C 23.34375 -8.828125 22.832031 -6.882812 21.8125 -5.15625 C 20.800781 -3.4375 19.410156 -2.070312 17.640625 -1.0625 C 15.867188 -0.0625 13.835938 0.4375 11.546875 0.4375 Z M 13.390625 -2.40625 C 14.859375 -2.40625 15.929688 -2.957031 16.609375 -4.0625 C 17.285156 -5.175781 17.625 -6.476562 17.625 -7.96875 C 17.625 -9.226562 17.472656 -10.460938 17.171875 -11.671875 C 16.867188 -12.878906 16.4375 -13.984375 15.875 -14.984375 C 15.3125 -15.992188 14.648438 -16.789062 13.890625 -17.375 C 13.128906 -17.96875 12.289062 -18.265625 11.375 -18.265625 C 10.34375 -18.265625 9.507812 -17.976562 8.875 -17.40625 C 8.238281 -16.832031 7.785156 -16.09375 7.515625 -15.1875 C 7.242188 -14.28125 7.109375 -13.3125 7.109375 -12.28125 C 7.109375 -10.613281 7.375 -9.023438 7.90625 -7.515625 C 8.4375 -6.003906 9.175781 -4.773438 10.125 -3.828125 C 11.070312 -2.878906 12.160156 -2.40625 13.390625 -2.40625 Z M 13.390625 -2.40625 "/></g></g></g><g fill="#ffffff" fill-opacity="1"><g transform="translate(156.482963, 66.847156)"><g><path d="M 18.484375 -20.671875 L 21.453125 -20.671875 C 22.085938 -20.671875 22.578125 -20.59375 22.921875 -20.4375 C 23.265625 -20.28125 23.4375 -20 23.4375 -19.59375 C 23.4375 -19.195312 23.332031 -18.890625 23.125 -18.671875 C 22.925781 -18.453125 22.671875 -18.234375 22.359375 -18.015625 C 22.046875 -17.804688 21.707031 -17.476562 21.34375 -17.03125 C 20.988281 -16.59375 20.640625 -15.925781 20.296875 -15.03125 L 15.328125 -1.890625 C 15.128906 -1.378906 14.882812 -0.984375 14.59375 -0.703125 C 14.3125 -0.429688 13.625 -0.179688 12.53125 0.046875 C 11.382812 0.328125 10.59375 0.378906 10.15625 0.203125 C 9.726562 0.0351562 9.414062 -0.316406 9.21875 -0.859375 L 3.625 -15.078125 C 3.28125 -15.941406 2.921875 -16.59375 2.546875 -17.03125 C 2.171875 -17.476562 1.832031 -17.804688 1.53125 -18.015625 C 1.226562 -18.234375 0.972656 -18.453125 0.765625 -18.671875 C 0.566406 -18.890625 0.46875 -19.195312 0.46875 -19.59375 C 0.46875 -20.03125 0.640625 -20.316406 0.984375 -20.453125 C 1.328125 -20.597656 1.789062 -20.671875 2.375 -20.671875 L 8.921875 -20.671875 C 9.523438 -20.671875 10 -20.59375 10.34375 -20.4375 C 10.6875 -20.28125 10.859375 -20 10.859375 -19.59375 C 10.859375 -19.195312 10.742188 -18.890625 10.515625 -18.671875 C 10.285156 -18.453125 10.046875 -18.234375 9.796875 -18.015625 C 9.554688 -17.804688 9.40625 -17.476562 9.34375 -17.03125 C 9.289062 -16.59375 9.4375 -15.925781 9.78125 -15.03125 L 13.734375 -4.828125 L 17.578125 -15.03125 C 17.890625 -15.925781 18.023438 -16.59375 17.984375 -17.03125 C 17.941406 -17.476562 17.804688 -17.804688 17.578125 -18.015625 C 17.347656 -18.234375 17.125 -18.453125 16.90625 -18.671875 C 16.6875 -18.890625 16.578125 -19.195312 16.578125 -19.59375 C 16.578125 -20.03125 16.742188 -20.316406 17.078125 -20.453125 C 17.410156 -20.597656 17.878906 -20.671875 18.484375 -20.671875 Z M 18.484375 -20.671875 "/></g></g></g><g fill="#ffffff" fill-opacity="1"><g transform="translate(180.345451, 66.847156)"><g><path d="M 21.671875 -11.453125 C 21.609375 -10.710938 21.207031 -10.34375 20.46875 -10.34375 L 7.15625 -10.171875 C 7.382812 -8.242188 8.132812 -6.691406 9.40625 -5.515625 C 10.6875 -4.335938 12.273438 -3.75 14.171875 -3.75 C 15.492188 -3.75 16.613281 -3.992188 17.53125 -4.484375 C 18.445312 -4.972656 19.28125 -5.546875 20.03125 -6.203125 C 20.488281 -6.609375 20.890625 -6.6875 21.234375 -6.4375 C 21.578125 -6.195312 21.632812 -5.757812 21.40625 -5.125 C 21.125 -4.320312 20.585938 -3.488281 19.796875 -2.625 C 19.003906 -1.757812 17.945312 -1.03125 16.625 -0.4375 C 15.300781 0.144531 13.707031 0.4375 11.84375 0.4375 C 9.75 0.4375 7.914062 -0.00390625 6.34375 -0.890625 C 4.78125 -1.785156 3.566406 -3.015625 2.703125 -4.578125 C 1.847656 -6.148438 1.421875 -7.957031 1.421875 -10 C 1.421875 -12.125 1.929688 -14.023438 2.953125 -15.703125 C 3.972656 -17.378906 5.328125 -18.695312 7.015625 -19.65625 C 8.710938 -20.625 10.566406 -21.109375 12.578125 -21.109375 C 14.472656 -21.109375 16.125 -20.710938 17.53125 -19.921875 C 18.9375 -19.128906 20.015625 -18.007812 20.765625 -16.5625 C 21.515625 -15.113281 21.816406 -13.410156 21.671875 -11.453125 Z M 8.234375 -12.703125 L 15.328125 -12.75 C 15.796875 -12.75 16.078125 -12.8125 16.171875 -12.9375 C 16.273438 -13.070312 16.328125 -13.398438 16.328125 -13.921875 C 16.265625 -15.179688 15.820312 -16.238281 15 -17.09375 C 14.1875 -17.957031 13.109375 -18.390625 11.765625 -18.390625 C 10.785156 -18.390625 9.953125 -18.140625 9.265625 -17.640625 C 8.578125 -17.140625 8.050781 -16.515625 7.6875 -15.765625 C 7.332031 -15.015625 7.140625 -14.296875 7.109375 -13.609375 C 7.109375 -13.210938 7.171875 -12.960938 7.296875 -12.859375 C 7.429688 -12.753906 7.742188 -12.703125 8.234375 -12.703125 Z M 8.234375 -12.703125 "/></g></g></g></svg>